<?xml version="1.0" encoding="UTF-8" standalone="no"?>
<svg
   xmlns:dc="http://purl.org/dc/elements/1.1/"
   xmlns:cc="http://creativecommons.org/ns#"
   xmlns:rdf="http://www.w3.org/1999/02/22-rdf-syntax-ns#"
   xmlns:svg="http://www.w3.org/2000/svg"
   xmlns="http://www.w3.org/2000/svg"
   xmlns:sodipodi="http://sodipodi.sourceforge.net/DTD/sodipodi-0.dtd"
   xmlns:inkscape="http://www.inkscape.org/namespaces/inkscape"
   version="1.0"
   width="526.00848"
   height="351.90564"
   viewBox="0 0 420.80679 281.52451"
   preserveAspectRatio="xMidYMid meet"
   id="svg3067"
   inkscape:version="0.48.5 r10040"
   sodipodi:docname="raccoon in can.svg">
  <defs
     id="defs3109" />
  <sodipodi:namedview
     pagecolor="#ffffff"
     bordercolor="#666666"
     borderopacity="1"
     objecttolerance="10"
     gridtolerance="10"
     guidetolerance="10"
     inkscape:pageopacity="0"
     inkscape:pageshadow="2"
     inkscape:window-width="1401"
     inkscape:window-height="855"
     id="namedview3107"
     showgrid="false"
     inkscape:zoom="1"
     inkscape:cx="111.14892"
     inkscape:cy="192.76815"
     inkscape:window-x="35"
     inkscape:window-y="0"
     inkscape:window-maximized="0"
     inkscape:current-layer="svg3067"
     fit-margin-top="0"
     fit-margin-left="0"
     fit-margin-right="0"
     fit-margin-bottom="0" />
  <metadata
     id="metadata3069">
Created by potrace 1.13, written by Peter Selinger 2001-2015
<rdf:RDF>
  <cc:Work
     rdf:about="">
    <dc:format>image/svg+xml</dc:format>
    <dc:type
       rdf:resource="http://purl.org/dc/dcmitype/StillImage" />
    <dc:title></dc:title>
  </cc:Work>
</rdf:RDF>
</metadata>
  <g
     inkscape:groupmode="layer"
     id="layer1"
     inkscape:label="coon"
     style="display:inline"
     sodipodi:insensitive="true"
     transform="translate(-144.62378,-123.0531)">
    <path
       style="fill:#000000;fill-opacity:1;stroke:none"
       d="m 264.5064,197.56129 c 3.31059,-0.57865 -65.91294,-26.51041 -83.72668,-37.59806 4.86697,26.82273 4.14399,53.64546 5.89063,80.46819 3.17609,2.77298 6.05448,5.09941 11.94691,11.9469 5.58899,12.27655 5.18147,16.50981 5.18147,16.50981 -18.8745,40.15959 -1.92699,190.95747 114.55154,215.316 16.9518,-7.56139 10.7043,-48.59457 -6.76542,-103.92459 -89.2618,-2.55548 -104.06282,-46.37364 -100.05531,-88.1084 56.11838,-0.0175 127.65721,2.11096 129.65857,-8.78678 3.40768,-1.4734 -4.15712,-75.50133 -19.31536,-84.49534 -14.9107,-14.60689 -70.10526,7.64397 -100.85505,50.50257 L 202.74277,229.4499 c 0,0 -6.86942,-27.1863 -5.52829,-35.48613 0.22564,-1.39639 36.70437,8.94387 67.29192,3.59752 z"
       id="path3143"
       inkscape:connector-curvature="0"
       transform="scale(0.8,0.8)"
       sodipodi:nodetypes="scccscccccccss" />
    <path
       style="fill:#000000;fill-opacity:1;stroke:none"
       d="m 377.8208,191.15044 c 22.87605,-16.53564 45.64608,-33.15803 83.62831,-37.33407 10.1753,9.61228 15.0572,71.80779 21.34448,107.61271 1.48933,8.48144 -30.01347,-41.45141 -32.54081,-45.64204 -3.1044,-5.14746 -5.1454,-21.79671 -11.11352,-32.72198 -9.77169,4.40275 -18.60361,9.74527 -26.97112,15.5522 -13.41139,-1.92829 -30.13173,-2.91117 -34.34734,-7.46682 z"
       id="path3145"
       inkscape:connector-curvature="0"
       transform="scale(0.8,0.8)"
       sodipodi:nodetypes="ccssccc" />
    <path
       style="fill:#000000;fill-opacity:1;stroke:none"
       d="m 374.39668,286.63508 c -9.11721,-10.10177 -10.9998,-81.73171 -8.61337,-87.58043 11.26122,-27.59921 124.00367,68.91455 122.63692,103.84179 -39.15182,0.19547 -106.14328,-7.5301 -114.02355,-16.26136 z"
       id="path3147"
       inkscape:connector-curvature="0"
       transform="scale(0.8,0.8)"
       sodipodi:nodetypes="sscs" />
    <path
       style="fill:#000000;fill-opacity:1;stroke:none"
       d="m 345.32139,304.11803 c -1.48055,2.81835 23.80102,22.14394 30.47806,25.12318 10.89883,-5.91516 23.4681,-19.3362 19.76053,-24.1578 -9.82817,-12.78125 -46.32114,-8.42256 -50.23859,-0.96538 z"
       id="path3149"
       inkscape:connector-curvature="0"
       transform="scale(0.8,0.8)"
       sodipodi:nodetypes="scss" />
    <path
       style="fill:#000000;fill-opacity:1;stroke:none"
       d="m 330.03319,376.50084 c 10.85058,26.81273 21.14425,55.48359 21.08048,104.80716 39.30541,-5.59558 69.93119,-12.4311 99.52733,-19.41372 -0.41892,-46.83445 -10.72094,-91.71393 -44.00892,-122.46352 -27.62229,10.61559 -53.20037,22.93468 -76.59889,37.07008 z"
       id="path3151"
       inkscape:connector-curvature="0"
       transform="scale(0.8,0.8)"
       sodipodi:nodetypes="ccccc" />
    <path
       style="fill:#000000;fill-opacity:1;stroke:none"
       d="m 426.2192,331.13056 c 31.08643,44.67855 46.52064,86.7484 39.61942,125.09567 29.29425,-6.91794 56.72773,-16.62704 83.94149,-26.66571 1.68135,-36.31298 -8.80611,-98.15446 -25.83234,-122.19177 -4.90195,-6.92049 -85.77254,17.23162 -97.72857,23.76181 z"
       id="path3153"
       inkscape:connector-curvature="0"
       transform="scale(0.8,0.8)"
       sodipodi:nodetypes="cccsc" />
    <path
       style="fill:#000000;fill-opacity:1;stroke:none"
       d="m 538.88139,303.59005 c 25.62744,40.64097 31.09436,81.73455 22.62303,122.59552 23.43135,-5.719 46.31928,-12.16257 68.69469,-19.2895 9.2517,-17.47461 9.94101,-53.70497 6.19604,-72.5562 -32.50459,-16.46327 -65.00917,-26.60597 -97.51376,-30.74982 z"
       id="path3155"
       inkscape:connector-curvature="0"
       transform="scale(0.8,0.8)"
       sodipodi:nodetypes="ccccc" />
    <path
       style="fill:#000000;stroke:none"
       d="m 639.59668,412.25873 c 10.83892,-19.76901 12.80519,-43.74002 7.46682,-70.54263 32.48423,35.30203 64.18256,94.63747 59.20653,164.00592 -23.89706,-57.17166 -42.07361,-81.42476 -66.67335,-93.46329 z"
       id="path3157"
       inkscape:connector-curvature="0"
       transform="scale(0.8,0.8)"
       sodipodi:nodetypes="cccc" />
  </g>
  <g
     inkscape:groupmode="layer"
     id="layer2"
     inkscape:label="eyes"
     style="display:inline"
     sodipodi:insensitive="true"
     transform="translate(-144.62378,-123.0531)">
    <path
       sodipodi:type="arc"
       style="color:#000000;fill:#ffffff;fill-opacity:1;fill-rule:nonzero;stroke:none;stroke-width:1.25;marker:none;visibility:visible;display:inline;overflow:visible;enable-background:accumulate"
       id="path2997"
       sodipodi:cx="306.23044"
       sodipodi:cy="268.65744"
       sodipodi:rx="16.895472"
       sodipodi:ry="16.895472"
       d="m 323.12591,268.65744 c 0,9.33111 -7.56436,16.89547 -16.89547,16.89547 -9.33111,0 -16.89547,-7.56436 -16.89547,-16.89547 0,-9.33111 7.56436,-16.89547 16.89547,-16.89547 9.33111,0 16.89547,7.56436 16.89547,16.89547 z"
       transform="matrix(0.8,0,0,0.8,-2.522471,0)" />
    <path
       sodipodi:type="arc"
       style="color:#000000;fill:#ffffff;fill-opacity:1;fill-rule:nonzero;stroke:none;stroke-width:1.25;marker:none;visibility:visible;display:inline;overflow:visible;enable-background:accumulate"
       id="path3045"
       sodipodi:cx="418.69092"
       sodipodi:cy="286.08087"
       sodipodi:rx="16.367489"
       sodipodi:ry="16.367489"
       d="m 435.05841,286.08087 c 0,9.03952 -7.32798,16.36749 -16.36749,16.36749 -9.03952,0 -16.36749,-7.32797 -16.36749,-16.36749 0,-9.03951 7.32797,-16.36749 16.36749,-16.36749 9.03951,0 16.36749,7.32798 16.36749,16.36749 z"
       transform="matrix(0.8,0,0,0.8,-13.6,-13.6)" />
  </g>
</svg>
